HIERARCHY
ROOT Hips
{
	OFFSET 0.00000 0.00000 0.00000
	CHANNELS 6 Xposition Yposition Zposition Zrotation Yrotation Xrotation 
	JOINT LHipJoint
	{
		OFFSET 0 0 0
		CHANNELS 3 Zrotation Yrotation Xrotation
		JOINT LeftHip
		{
			OFFSET 1.29432 -1.88279 0.59910
			CHANNELS 3 Zrotation Yrotation Xrotation
			JOINT LeftKnee
			{
				OFFSET 2.63039 -7.22694 0.00000
				CHANNELS 3 Zrotation Yrotation Xrotation
				JOINT LeftAnkle
				{
					OFFSET 2.70674 -7.43672 0.00000
					CHANNELS 3 Zrotation Yrotation Xrotation
					JOINT LeftToe
					{
						OFFSET 0.15066 -0.41394 2.09027
						CHANNELS 3 Zrotation Yrotation Xrotation
						End Site
						{
							OFFSET 0.00000 -0.00000 1.07518
						}
					}
				}
			}
		}
	}
	JOINT RHipJoint
	{
		OFFSET 0 0 0
		CHANNELS 3 Zrotation Yrotation Xrotation
		JOINT RightHip
		{
			OFFSET -1.37068 -1.88279 0.59910
			CHANNELS 3 Zrotation Yrotation Xrotation
			JOINT RightKnee
			{
				OFFSET -2.57023 -7.06166 0.00000
				CHANNELS 3 Zrotation Yrotation Xrotation
				JOINT RightAnkle
				{
					OFFSET -2.76461 -7.59570 0.00000
					CHANNELS 3 Zrotation Yrotation Xrotation
					JOINT RightToe
					{
						OFFSET -0.24175 -0.64785 2.19719
						CHANNELS 3 Zrotation Yrotation Xrotation
						End Site
						{
							OFFSET -0.00000 -0.00000 1.14803
						}
					}
				}
			}
		}
	}
	JOINT lowerback
	{
		OFFSET 0 0 0
		CHANNELS 3 Zrotation Yrotation Xrotation
		JOINT Chest
		{
			OFFSET -0.03138 2.03983 -0.23106
			CHANNELS 3 Zrotation Yrotation Xrotation
			JOINT Chest2
			{
				OFFSET -0.00325 2.06238 -0.06878
				CHANNELS 3 Zrotation Yrotation Xrotation
				JOINT lowerneck
				{
					OFFSET 0 0 0
					CHANNELS 3 Zrotation Yrotation Xrotation
					JOINT Neck
					{
						OFFSET -0.00002 1.75318 0.18090
						CHANNELS 3 Zrotation Yrotation Xrotation
						JOINT Head
						{
							OFFSET 0.08806 1.75856 -0.25387
							CHANNELS 3 Zrotation Yrotation Xrotation
							End Site
							{
								OFFSET 0.02554 1.78597 -0.10684
							}
						}
					}
				}
				JOINT LeftCollar
				{
					OFFSET 0 0 0
					CHANNELS 3 Zrotation Yrotation Xrotation
					JOINT LeftShoulder
					{
						OFFSET 3.09657 1.33597 -0.04414
CHANNELS 3 Zrotation Xrotation Yrotation
						JOINT LeftElbow
						{
OFFSET 0 -5.342980 -0.000000
CHANNELS 3 Zrotation Xrotation Yrotation
							JOINT LeftWrist
							{
OFFSET 0 -3.672620 -0.000000
CHANNELS 3 Zrotation Xrotation Yrotation
								JOINT lhand
								{
									OFFSET 0 0 0
CHANNELS 3 Zrotation Xrotation Yrotation
									JOINT LFingers
									{
OFFSET 0 -0.599300 -0.000000
CHANNELS 3 Zrotation Xrotation Yrotation
										End Site
										{
OFFSET 0 -0.483170 -0.000000
										}
									}
								}
								JOINT LThumb
								{
OFFSET 0 0.000000 0.000000
CHANNELS 3 Zrotation Xrotation Yrotation
									End Site
									{
OFFSET 0 -0.490550 0.490550
									}
								}
							}
						}
					}
				}
				JOINT RightCollar
				{
					OFFSET 0 0 0
					CHANNELS 3 Zrotation Yrotation Xrotation
					JOINT RightShoulder
					{
						OFFSET -3.16460 1.32273 -0.23382
CHANNELS 3 Zrotation Xrotation Yrotation
						JOINT RightElbow
						{
OFFSET 0 -5.549670 0.033480
CHANNELS 3 Zrotation Xrotation Yrotation
							JOINT RightWrist
							{
OFFSET 0 -3.694010 0.000000
CHANNELS 3 Zrotation Xrotation Yrotation
								JOINT rhand
								{
									OFFSET 0 0 0
CHANNELS 3 Zrotation Xrotation Yrotation
									JOINT RFingers
									{
OFFSET 0 -0.638110 0.000000
CHANNELS 3 Zrotation Xrotation Yrotation
										End Site
										{
OFFSET 0 -0.514460 0.000000
										}
									}
								}
								JOINT RThumb
								{
OFFSET 0 0.000000 0.000000
CHANNELS 3 Zrotation Xrotation Yrotation
									End Site
									{
OFFSET 0 -0.522320 0.522320
									}
								}
							}
						}
					}
				}
			}
		}
	}
}
MOTION
Frames: 11
Frame Time: 0.008333333333333333
14.911900 18.590800 21.127400 -179.137000 -10.827700 -174.060000 0.000000 0.000000 0.000000 -14.154700 -6.418600 -32.652400 7.904700 16.048700 52.218500 0.423000 -2.518600 -11.675300 0.089300 -1.927700 -5.306000 0.000000 0.000000 0.000000 18.966400 16.555500 -17.596900 -4.001600 -12.162500 36.309200 -0.912800 -2.441800 -19.086500 -0.015100 -0.794000 2.182300 -2.249600 1.830700 10.212100 -2.178800 1.645000 5.407500 -1.154600 0.569000 -0.107500 -6.621400 -7.129800 -1.218200 4.440300 -12.029800 21.796100 1.608800 -6.458500 7.557400 -0.000000 0.000000 0.000000 10.615300 -0.651400 -35.537600 34.940600 -44.769700 14.771500 9.054500 12.862300 -30.148800 0.000000 0.000000 0.000000 -7.125000 0.000000 0.000000 -24.953400 58.655300 8.673800 -0.000000 0.000000 0.000000 -23.036500 -11.338600 6.369000 -32.233700 -42.732700 -12.899100 -22.831600 -5.668900 -25.724400 0.000000 0.000000 0.000000 7.125000 0.000000 -0.000000 4.168400 2.445100 3.997500
14.876984 18.575590 21.013832 -178.934416 -10.393088 -173.782170 0.000000 0.000000 0.000000 -13.612110 -6.768811 -33.577997 7.261799 15.544828 49.851417 0.404592 -2.779559 -11.377431 0.017122 0.002887 0.008495 0.000000 0.000000 0.000000 19.185342 16.801860 -17.438043 -3.983422 -12.138204 36.222758 -0.908731 -2.534258 -19.091681 -0.005324 -0.453765 1.246828 -2.483904 1.587113 10.245156 -1.935274 1.244937 5.995672 -0.728361 0.323106 0.474584 -7.745702 -7.016718 -2.941934 4.660952 -11.583759 21.978868 1.813543 -6.231623 7.979047 0.000000 0.000000 0.000000 9.944389 -1.609022 -33.831377 35.169229 -44.932298 14.932886 9.817414 13.283790 -29.960166 0.000000 0.000000 0.000000 -7.125000 0.000000 0.000000 -24.029748 58.654359 8.326331 0.000000 0.000000 0.000000 -25.142993 -13.997326 6.723673 -32.671024 -43.074953 -13.197053 -23.965045 -6.997419 -24.169908 0.000000 0.000000 0.000000 7.125000 0.000000 0.000000 3.293281 3.859758 3.069074
14.837748 18.581553 20.905226 -178.867631 -9.875776 -173.599710 0.000000 0.000000 0.000000 -13.282743 -6.961063 -34.160441 6.535283 14.923982 47.087266 0.427867 -2.261609 -11.783216 0.057307 -0.857057 -2.358698 0.000000 0.000000 0.000000 19.270320 17.062068 -16.989655 -3.913665 -12.044544 35.889903 -0.895723 -2.699437 -19.047606 -0.000697 -0.013242 0.036442 -2.041177 2.184005 10.448112 -2.525498 2.051192 5.794498 -1.675206 0.745737 0.192504 -6.681536 -7.405835 -1.262742 4.886915 -12.363804 21.293674 1.743870 -6.554620 7.453198 0.000000 0.000000 0.000000 11.332225 -1.280745 -35.512463 35.710799 -45.312478 15.316713 10.345392 13.660182 -31.420362 0.000000 0.000000 0.000000 -7.125000 0.000000 0.000000 -24.697319 60.087907 9.444248 0.000000 0.000000 0.000000 -25.454348 -13.682621 4.857641 -33.280621 -43.543985 -13.615172 -25.592112 -8.534015 -23.826479 0.000000 0.000000 0.000000 7.125000 0.000000 0.000000 2.250762 3.908087 2.094791
14.797390 18.598303 20.796070 -178.820321 -9.608146 -173.380017 0.000000 0.000000 0.000000 -12.882510 -7.596257 -34.536487 5.771548 14.201790 44.055086 0.413636 -1.058588 -11.824365 0.167709 -2.637704 -7.271722 0.000000 0.000000 0.000000 19.339567 17.205301 -16.583230 -3.846157 -11.952832 35.565326 -0.901956 -2.866289 -19.193633 -0.001314 0.231275 -0.635555 -2.136777 2.069309 10.859915 -2.609691 1.831169 5.992308 -1.694905 0.615279 0.168496 -6.967093 -7.314936 -1.810433 4.957884 -12.135627 21.245580 1.805277 -6.428911 7.540585 0.000000 0.000000 0.000000 11.394712 -1.558030 -34.589055 36.300651 -45.718831 15.737327 8.276920 14.140020 -35.015462 0.000000 0.000000 0.000000 -7.125000 0.000000 0.000000 -30.306712 62.719997 13.700690 0.000000 0.000000 0.000000 -26.728600 -15.529172 4.316648 -33.515305 -43.722333 -13.776946 -26.904397 -9.896855 -23.279245 0.000000 0.000000 0.000000 7.125000 0.000000 0.000000 1.372281 4.230562 1.267530
14.756473 18.611955 20.690858 -178.687786 -9.368696 -173.146454 0.000000 0.000000 0.000000 -12.335331 -8.270196 -34.768691 4.991472 13.367148 40.771628 0.315115 0.178841 -10.670818 0.139294 -2.405649 -6.628176 0.000000 0.000000 0.000000 19.460198 17.200451 -16.363876 -3.791655 -11.877850 35.301263 -0.928392 -2.715659 -19.373700 -0.001081 -0.119416 0.328077 -1.442124 1.912343 11.439324 -3.196036 1.621934 5.916221 -2.694452 0.517461 -0.173650 -7.001318 -7.231285 -1.688924 5.604553 -12.135135 21.162016 2.029856 -6.392554 7.534584 0.000000 0.000000 0.000000 12.264733 -1.255292 -34.003221 36.629368 -45.940387 15.973406 8.917570 14.240376 -33.993333 0.000000 0.000000 0.000000 -7.125000 0.000000 0.000000 -28.562218 62.010715 12.359821 0.000000 0.000000 0.000000 -27.183547 -16.656715 4.049100 -34.012627 -44.091759 -14.122660 -28.313535 -11.898068 -23.171014 0.000000 0.000000 0.000000 7.125000 0.000000 0.000000 0.487566 4.052415 0.453879
14.711664 18.604149 20.586070 -178.358998 -8.870109 -173.015509 0.000000 0.000000 0.000000 -11.500626 -8.950115 -34.720610 4.231702 12.456672 37.376024 0.227022 1.656783 -9.767605 0.076108 -1.743391 -4.798058 0.000000 0.000000 0.000000 19.765654 17.384670 -16.023893 -3.754129 -11.825810 35.118606 -0.961009 -2.423835 -19.542562 -0.005063 -0.454986 1.250311 -1.228556 2.148937 11.483350 -3.299133 1.929526 6.053190 -2.953205 0.668935 -0.041999 -6.776443 -7.330710 -1.010502 5.681552 -12.302365 20.657067 2.043819 -6.458702 7.249842 0.000000 0.000000 0.000000 12.620012 -1.373392 -34.236673 36.830753 -46.076046 16.118066 10.187213 13.997967 -31.832118 0.000000 0.000000 0.000000 -7.125000 0.000000 0.000000 -25.235382 60.409740 9.889574 0.000000 0.000000 0.000000 -28.318790 -17.638018 2.873088 -34.287875 -44.296674 -14.313777 -29.419380 -12.936815 -22.519196 0.000000 0.000000 0.000000 7.125000 0.000000 0.000000 -0.287133 4.526206 -0.263469
14.665991 18.594583 20.483286 -178.328394 -8.391000 -172.862998 0.000000 0.000000 0.000000 -10.971767 -9.659875 -34.450727 3.520004 11.488782 33.951348 0.126567 2.852070 -8.404923 0.017387 -0.611322 -1.681285 0.000000 0.000000 0.000000 19.739535 17.537880 -15.674086 -3.721460 -11.780270 34.958950 -0.984555 -2.261943 -19.688341 -0.005725 -0.489366 1.344788 -2.154731 2.316044 11.881573 -2.879082 2.028503 6.181103 -2.015255 0.682486 -0.174394 -7.161591 -7.389600 -0.998665 5.247252 -12.211015 20.411680 1.978647 -6.458343 7.159732 0.000000 0.000000 0.000000 11.886645 -1.463710 -33.809857 37.033077 -46.210432 16.263955 11.294006 13.822607 -30.621743 0.000000 0.000000 0.000000 -7.125000 0.000000 0.000000 -23.038065 59.587508 8.479539 0.000000 0.000000 0.000000 -30.389054 -19.093807 1.838998 -34.332255 -44.329231 -14.344781 -29.228751 -13.786621 -22.790406 0.000000 0.000000 0.000000 7.125000 0.000000 0.000000 -0.130917 4.270494 -0.118998
14.616955 18.595533 20.378494 -178.282623 -8.179887 -172.609436 0.000000 0.000000 0.000000 -10.345649 -10.598162 -34.183279 2.871327 10.473955 30.535280 0.080812 4.110868 -8.420419 0.117158 -2.206473 -6.076623 0.000000 0.000000 0.000000 19.713818 17.433296 -15.552147 -3.704740 -11.756794 34.876828 -1.021527 -2.071287 -19.944181 -0.004706 -0.438125 1.203804 -2.507745 2.269340 11.687076 -2.809953 1.902448 6.537416 -1.721835 0.586217 0.285812 -7.298222 -7.355707 -1.095644 5.138959 -12.042615 20.087642 1.982590 -6.375599 7.061640 0.000000 0.000000 0.000000 11.658467 -1.763760 -33.252428 37.316623 -46.396992 16.469027 12.086457 14.113872 -30.938579 0.000000 0.000000 0.000000 -7.125000 0.000000 0.000000 -22.469559 60.060958 8.510878 0.000000 0.000000 0.000000 -31.951752 -20.651397 1.127925 -34.567264 -44.500643 -14.509220 -32.266727 -15.611613 -21.278924 0.000000 0.000000 0.000000 7.125000 0.000000 0.000000 -2.242795 5.267725 -2.022038
14.567622 18.581212 20.271969 -178.157705 -7.823222 -172.327060 0.000000 0.000000 0.000000 -9.503095 -11.673440 -33.813393 2.288122 9.436310 27.174534 -0.001395 5.660968 -8.050138 0.053454 -1.450120 -3.989089 0.000000 0.000000 0.000000 19.752768 17.410552 -15.522654 -3.706904 -11.759866 34.887704 -1.073273 -1.857228 -20.322981 -0.003400 -0.376516 1.034464 -2.720189 2.213330 11.758659 -2.815592 1.760403 6.812677 -1.592526 0.485697 0.526271 -7.609856 -7.320586 -1.264707 5.214313 -11.870300 19.690329 2.070144 -6.283450 6.974323 0.000000 0.000000 0.000000 11.633347 -2.275327 -32.671359 37.783538 -46.700229 16.807971 13.011019 14.085010 -31.059455 0.000000 0.000000 0.000000 -7.125000 0.000000 0.000000 -21.598021 60.388401 8.333555 0.000000 0.000000 0.000000 -33.319755 -22.536880 0.278921 -34.397836 -44.377240 -14.390580 -33.919183 -17.068234 -20.726741 0.000000 0.000000 0.000000 7.125000 0.000000 0.000000 -3.356371 5.502186 -3.024709
14.514877 18.572092 20.167165 -178.006970 -7.339602 -172.247179 0.000000 0.000000 0.000000 -8.658283 -12.717060 -33.119198 1.810631 8.455214 24.108272 -0.054448 6.881111 -8.364175 0.006581 -0.513545 -1.411213 0.000000 0.000000 0.000000 19.825117 17.360675 -15.369628 -3.721442 -11.780246 34.958843 -1.127753 -1.486506 -20.651587 -0.001981 -0.289136 0.794450 -2.139877 1.798348 13.563595 -3.509190 1.157572 6.102463 -2.619051 0.213892 -1.159059 -7.775618 -6.873296 -1.125740 5.585799 -11.454023 20.200494 2.246040 -6.106674 7.114157 0.000000 0.000000 0.000000 12.580787 -0.981470 -31.598537 38.369782 -47.073841 17.235873 13.006696 14.004812 -29.766260 0.000000 0.000000 0.000000 -7.125000 0.000000 0.000000 -20.598700 59.189677 7.334235 0.000000 0.000000 0.000000 -32.944416 -23.589584 0.904186 -34.452890 -44.417245 -14.429172 -33.684698 -18.481224 -21.829323 0.000000 0.000000 0.000000 7.125000 0.000000 0.000000 -3.027403 4.304973 -2.795414
14.464210 18.558394 20.065835 -177.632132 -6.891614 -172.127968 0.000000 0.000000 0.000000 -7.588364 -13.421133 -32.682205 1.445948 7.594665 21.492883 -0.110387 7.840884 -8.401630 0.003826 -0.391150 -1.074777 0.000000 0.000000 0.000000 20.134335 17.460984 -15.242462 -3.733198 -11.796662 35.016352 -1.168097 -1.158665 -20.872561 -0.004165 -0.403154 1.107795 -3.535470 1.636278 12.424798 -2.387130 0.824567 7.080252 -0.593695 -0.041369 0.420310 -9.541673 -6.588993 -1.405838 5.582215 -10.691287 19.248349 2.591758 -5.812275 6.900283 0.000000 0.000000 0.000000 10.452938 -1.945850 -29.641899 38.485954 -47.146500 17.321043 12.770767 14.607158 -29.727792 0.000000 0.000000 0.000000 -7.125000 0.000000 0.000000 -20.817802 59.100076 7.373297 0.000000 0.000000 0.000000 -36.016888 -26.787722 0.401117 -34.200867 -44.232994 -14.253017 -33.893656 -19.585035 -21.729672 0.000000 0.000000 0.000000 7.125000 0.000000 0.000000 -3.173221 4.366586 -2.925700
